<svg width="26" height="21" viewBox="0 0 26 21" fill="none" xmlns="http://www.w3.org/2000/svg">
<mask id="mask0_845_992" style="mask-type:luminance" maskUnits="userSpaceOnUse" x="0" y="0" width="26" height="21">
<path d="M26 0.856323H0V20.8563H26V0.856323Z" fill="white"/>
</mask>
<g mask="url(#mask0_845_992)">
<path d="M22.0101 2.51421C20.3529 1.74685 18.5759 1.18149 16.7179 0.857682C16.6841 0.851432 16.6503 0.86705 16.6328 0.898285C16.4043 1.30851 16.1511 1.84367 15.9739 2.26431C13.9754 1.96238 11.9873 1.96238 10.0298 2.26431C9.85254 1.83432 9.59019 1.30851 9.36062 0.898285C9.34319 0.868092 9.30939 0.852474 9.27555 0.857682C7.41857 1.18045 5.64152 1.74581 3.98335 2.51421C3.96899 2.52046 3.95669 2.53088 3.94852 2.54441C0.577841 7.62645 -0.345529 12.5836 0.107445 17.4792C0.109495 17.5032 0.122817 17.5261 0.141265 17.5407C2.36514 19.1889 4.51935 20.1895 6.63355 20.8527C6.66739 20.8631 6.70324 20.8506 6.72477 20.8225C7.22489 20.1332 7.6707 19.4065 8.05293 18.6422C8.07549 18.5975 8.05396 18.5444 8.00785 18.5267C7.30073 18.256 6.6274 17.9259 5.97971 17.5511C5.92848 17.5209 5.92437 17.4469 5.9715 17.4115C6.1078 17.3085 6.24414 17.2012 6.37428 17.0929C6.39783 17.0732 6.43064 17.069 6.45833 17.0815C10.7134 19.0421 15.32 19.0421 19.5249 17.0815C19.5525 17.068 19.5854 17.0721 19.6099 17.0919C19.7401 17.2002 19.8764 17.3085 20.0137 17.4115C20.0609 17.4469 20.0578 17.5209 20.0066 17.5511C19.3589 17.9332 18.6855 18.256 17.9774 18.5256C17.9313 18.5433 17.9108 18.5975 17.9333 18.6422C18.3238 19.4054 18.7696 20.1322 19.2605 20.8214C19.281 20.8506 19.3179 20.8631 19.3517 20.8527C21.4761 20.1895 23.6303 19.1889 25.8542 17.5407C25.8737 17.5261 25.886 17.5042 25.8881 17.4803C26.4302 11.8204 24.98 6.90387 22.0439 2.54544C22.0367 2.53088 22.0245 2.52046 22.0101 2.51421ZM8.68836 14.4983C7.40729 14.4983 6.35173 13.3114 6.35173 11.8537C6.35173 10.396 7.38682 9.20908 8.68836 9.20908C10.0001 9.20908 11.0455 10.4064 11.025 11.8537C11.025 13.3114 9.98986 14.4983 8.68836 14.4983ZM17.3276 14.4983C16.0466 14.4983 14.991 13.3114 14.991 11.8537C14.991 10.396 16.0261 9.20908 17.3276 9.20908C18.6394 9.20908 19.6847 10.4064 19.6643 11.8537C19.6643 13.3114 18.6394 14.4983 17.3276 14.4983Z" fill="white"/>
</g>
</svg>
