<svg width="436" height="283" viewBox="0 0 436 283" fill="none" xmlns="http://www.w3.org/2000/svg">
<rect width="109" height="94" fill="#0A0A0A"/>
<rect x="109" width="109" height="94" fill="url(#paint0_linear_385_5)"/>
<rect x="218" width="109" height="94" fill="#0A0A0A"/>
<rect width="109" height="94" transform="matrix(-1 0 0 1 436 0)" fill="url(#paint1_linear_385_5)"/>
<rect y="94" width="109" height="95" fill="url(#paint2_linear_385_5)"/>
<rect x="109" y="94" width="109" height="95" fill="#0A0A0A"/>
<rect width="109" height="95" transform="matrix(-1 0 0 1 327 94)" fill="url(#paint3_linear_385_5)"/>
<rect x="327" y="94" width="109" height="95" fill="#0A0A0A"/>
<rect y="189" width="109" height="94" fill="#0A0A0A"/>
<rect x="109" y="189" width="109" height="94" fill="url(#paint4_linear_385_5)"/>
<rect x="218" y="189" width="109" height="94" fill="#0A0A0A"/>
<rect width="109" height="94" transform="matrix(-1 0 0 1 436 189)" fill="url(#paint5_linear_385_5)"/>
<defs>
<linearGradient id="paint0_linear_385_5" x1="119.381" y1="14.9024" x2="230.607" y2="43.0651" gradientUnits="userSpaceOnUse">
<stop stop-color="#8024AD"/>
<stop offset="1" stop-color="#630EE1"/>
</linearGradient>
<linearGradient id="paint1_linear_385_5" x1="10.381" y1="14.9024" x2="121.607" y2="43.0651" gradientUnits="userSpaceOnUse">
<stop stop-color="#8024AD"/>
<stop offset="1" stop-color="#630EE1"/>
</linearGradient>
<linearGradient id="paint2_linear_385_5" x1="0" y1="94" x2="109" y2="189" gradientUnits="userSpaceOnUse">
<stop stop-color="#515151"/>
<stop offset="1" stop-color="#232323"/>
</linearGradient>
<linearGradient id="paint3_linear_385_5" x1="0" y1="0" x2="109" y2="95" gradientUnits="userSpaceOnUse">
<stop stop-color="#515151"/>
<stop offset="1" stop-color="#232323"/>
</linearGradient>
<linearGradient id="paint4_linear_385_5" x1="119.381" y1="203.902" x2="230.607" y2="232.065" gradientUnits="userSpaceOnUse">
<stop stop-color="#8024AD"/>
<stop offset="1" stop-color="#630EE1"/>
</linearGradient>
<linearGradient id="paint5_linear_385_5" x1="10.381" y1="14.9024" x2="121.607" y2="43.0651" gradientUnits="userSpaceOnUse">
<stop stop-color="#8024AD"/>
<stop offset="1" stop-color="#630EE1"/>
</linearGradient>
</defs>
</svg>
