<svg width="24" height="25" viewBox="0 0 24 25" fill="none" xmlns="http://www.w3.org/2000/svg">
<path d="M22.56 12.75C22.56 11.97 22.49 11.22 22.36 10.5H12V14.755H17.92C17.665 16.13 16.89 17.295 15.725 18.075V20.835H19.28C21.36 18.92 22.56 16.1 22.56 12.75Z" fill="#4285F4"/>
<path d="M11.9999 23.4998C14.9699 23.4998 17.4599 22.5148 19.2799 20.8348L15.7249 18.0748C14.7399 18.7348 13.4799 19.1248 11.9999 19.1248C9.13492 19.1248 6.70992 17.1898 5.84492 14.5898H2.16992V17.4398C3.97992 21.0348 7.69992 23.4998 11.9999 23.4998Z" fill="#34A853"/>
<path d="M5.845 14.5901C5.625 13.9301 5.5 13.2251 5.5 12.5001C5.5 11.7751 5.625 11.0701 5.845 10.4101V7.56006H2.17C1.4 9.09292 0.999321 10.7847 1 12.5001C1 14.2751 1.425 15.9551 2.17 17.4401L5.845 14.5901Z" fill="#FBBC05"/>
<path d="M11.9999 5.875C13.6149 5.875 15.0649 6.43 16.2049 7.52L19.3599 4.365C17.4549 2.59 14.9649 1.5 11.9999 1.5C7.69992 1.5 3.97992 3.965 2.16992 7.56L5.84492 10.41C6.70992 7.81 9.13492 5.875 11.9999 5.875Z" fill="#EA4335"/>
</svg>
