<svg width="24" height="25" viewBox="0 0 24 25" fill="none" xmlns="http://www.w3.org/2000/svg">
<path d="M20.6106 12.8859L14.8506 15.7659L11.9806 21.5159L8.14062 9.0459L20.6106 12.8859Z" stroke="white" stroke-width="1.5" stroke-miterlimit="10"/>
<path d="M4.78979 4.72974L3.82812 5.69141L4.78979 6.65307L5.75146 5.69141L4.78979 4.72974Z" stroke="white" stroke-width="1.5" stroke-miterlimit="10"/>
<path d="M19.1677 4.73169L18.2061 5.69336L19.1677 6.65502L20.1294 5.69336L19.1677 4.73169Z" stroke="white" stroke-width="1.5" stroke-miterlimit="10"/>
<path d="M4.78784 19.1077L3.82617 20.0693L4.78784 21.031L5.7495 20.0693L4.78784 19.1077Z" stroke="white" stroke-width="1.5" stroke-miterlimit="10"/>
<path d="M5.29004 5.24603C7.06379 3.47453 9.46816 2.47949 11.975 2.47949C14.4819 2.47949 16.8863 3.47453 18.66 5.24603" stroke="white" stroke-width="1.5" stroke-miterlimit="10"/>
<path d="M4.30037 6.17578C2.52337 7.95676 1.52539 10.3699 1.52539 12.8858C1.52539 15.4017 2.52337 17.8148 4.30037 19.5958" stroke="white" stroke-width="1.5" stroke-miterlimit="10"/>
</svg>
