<svg width="42" height="42" viewBox="0 0 42 42" fill="none" xmlns="http://www.w3.org/2000/svg">
<circle cx="21" cy="21" r="21" fill="#161616"/>
<g clip-path="url(#clip0_211_17568)">
<path d="M21.0001 21.8166C23.6373 21.8166 25.7751 19.6788 25.7751 17.0416C25.7751 14.4044 23.6373 12.2666 21.0001 12.2666C18.3629 12.2666 16.2251 14.4044 16.2251 17.0416C16.2251 19.6788 18.3629 21.8166 21.0001 21.8166Z" stroke="white" stroke-width="1.5" stroke-miterlimit="10"/>
<path d="M12.25 30.5663L12.5583 28.858C12.9226 26.8851 13.9664 25.1021 15.5086 23.8187C17.0507 22.5354 18.9937 21.8328 21 21.833C23.0087 21.8335 24.9536 22.5384 26.496 23.8251C28.0385 25.1118 29.0809 26.8987 29.4417 28.8747L29.75 30.583" stroke="white" stroke-width="1.5" stroke-miterlimit="10"/>
</g>
<defs>
<clipPath id="clip0_211_17568">
<rect width="20" height="20" fill="white" transform="translate(11 11)"/>
</clipPath>
</defs>
</svg>
