<svg width="20" height="21" viewBox="0 0 20 21" fill="none" xmlns="http://www.w3.org/2000/svg">
<path d="M9.19998 15.2748H6.81665L7.97498 13.5498" stroke="white" stroke-width="1.5" stroke-miterlimit="10"/>
<path d="M12.025 13.5498L13.1834 15.2748H10.8" stroke="white" stroke-width="1.5" stroke-miterlimit="10"/>
<path d="M8.8501 12.225L10.0001 10.5L11.1501 12.225" stroke="white" stroke-width="1.5" stroke-miterlimit="10"/>
<path d="M1.25 6.52539H18.75V16.0671C18.75 16.9113 18.4146 17.721 17.8176 18.318C17.2206 18.915 16.4109 19.2504 15.5667 19.2504H4.43333C3.58906 19.2504 2.77937 18.915 2.18238 18.318C1.58539 17.721 1.25 16.9113 1.25 16.0671V6.52539Z" stroke="white" stroke-width="1.5" stroke-miterlimit="10"/>
<path d="M4.43335 9.70833V7.31667C4.43335 5.8403 5.01984 4.42439 6.06379 3.38044C7.10774 2.33649 8.52364 1.75 10 1.75C10.731 1.75 11.4549 1.89399 12.1303 2.17374C12.8057 2.45349 13.4193 2.86353 13.9362 3.38044C14.4532 3.89735 14.8632 4.51102 15.1429 5.1864C15.4227 5.86177 15.5667 6.58564 15.5667 7.31667V9.70833" stroke="white" stroke-width="1.5" stroke-miterlimit="10"/>
</svg>
