<svg width="534" height="263" viewBox="0 0 534 263" fill="none" xmlns="http://www.w3.org/2000/svg">
<path d="M72.5001 0.791992H32.4999C14.9881 0.791992 0.791992 14.9881 0.791992 32.4998C0.791992 50.0116 14.9881 64.2077 32.4999 64.2077H72.5001C90.0119 64.2077 104.208 50.0116 104.208 32.4998C104.208 14.9881 90.0119 0.791992 72.5001 0.791992Z" stroke="url(#paint0_linear_380_16)" stroke-width="1.58427"/>
<path d="M41.64 40.3719V26.0679L42.96 26.5479L38.16 29.5239V27.2439L42.696 24.4119H44.136V40.3719H41.64ZM37.896 41.4999V39.4599H47.88V41.4999H37.896ZM53.943 34.7559C52.743 34.7559 51.791 34.3239 51.087 33.4599C50.399 32.5799 50.055 31.2679 50.055 29.5239C50.055 27.7639 50.399 26.4599 51.087 25.6119C51.791 24.7479 52.743 24.3159 53.943 24.3159C55.143 24.3159 56.087 24.7479 56.775 25.6119C57.463 26.4599 57.807 27.7639 57.807 29.5239C57.807 31.2679 57.463 32.5799 56.775 33.4599C56.087 34.3239 55.143 34.7559 53.943 34.7559ZM53.943 33.0999C54.535 33.0999 54.975 32.8199 55.263 32.2599C55.551 31.6999 55.695 30.7879 55.695 29.5239C55.695 28.2759 55.551 27.3719 55.263 26.8119C54.975 26.2519 54.535 25.9719 53.943 25.9719C53.351 25.9719 52.911 26.2519 52.623 26.8119C52.335 27.3719 52.191 28.2759 52.191 29.5239C52.191 30.7879 52.335 31.6999 52.623 32.2599C52.911 32.8199 53.351 33.0999 53.943 33.0999ZM53.583 41.4999L63.495 24.4119H65.799L55.935 41.4999H53.583ZM65.439 41.5959C64.239 41.5959 63.287 41.1639 62.583 40.2999C61.895 39.4199 61.551 38.1079 61.551 36.3639C61.551 34.6039 61.895 33.2999 62.583 32.4519C63.287 31.5879 64.239 31.1559 65.439 31.1559C66.639 31.1559 67.583 31.5879 68.271 32.4519C68.959 33.2999 69.303 34.6039 69.303 36.3639C69.303 38.1079 68.959 39.4199 68.271 40.2999C67.583 41.1639 66.639 41.5959 65.439 41.5959ZM65.439 39.9399C66.031 39.9399 66.471 39.6599 66.759 39.0999C67.047 38.5399 67.191 37.6279 67.191 36.3639C67.191 35.1159 67.047 34.2119 66.759 33.6519C66.471 33.0919 66.031 32.8119 65.439 32.8119C64.847 32.8119 64.407 33.0919 64.119 33.6519C63.831 34.2119 63.687 35.1159 63.687 36.3639C63.687 37.6279 63.831 38.5399 64.119 39.0999C64.407 39.6599 64.847 39.9399 65.439 39.9399Z" fill="#BC3CF8"/>
<path d="M501.5 198.792H461.5C443.988 198.792 429.792 212.988 429.792 230.5C429.792 248.012 443.988 262.208 461.5 262.208H501.5C519.012 262.208 533.208 248.012 533.208 230.5C533.208 212.988 519.012 198.792 501.5 198.792Z" stroke="url(#paint1_linear_380_16)" stroke-width="1.58427"/>
<path d="M456.25 238.372V224.068L457.57 224.548L452.77 227.524V225.244L457.306 222.412H458.746V238.372H456.25ZM452.506 239.5V237.46H462.49V239.5H452.506ZM471.192 239.692C469.208 239.692 467.696 238.956 466.656 237.484C465.616 235.996 465.096 233.82 465.096 230.956C465.096 228.108 465.608 225.94 466.632 224.452C467.672 222.964 469.192 222.22 471.192 222.22C473.192 222.22 474.704 222.964 475.728 224.452C476.768 225.94 477.288 228.1 477.288 230.932C477.288 233.796 476.768 235.972 475.728 237.46C474.688 238.948 473.176 239.692 471.192 239.692ZM471.192 237.7C472.44 237.7 473.352 237.156 473.928 236.068C474.52 234.98 474.816 233.268 474.816 230.932C474.816 228.612 474.52 226.916 473.928 225.844C473.352 224.772 472.44 224.236 471.192 224.236C469.944 224.236 469.024 224.78 468.432 225.868C467.856 226.94 467.568 228.628 467.568 230.932C467.568 233.268 467.856 234.98 468.432 236.068C469.024 237.156 469.944 237.7 471.192 237.7ZM485.583 239.692C483.599 239.692 482.087 238.956 481.047 237.484C480.007 235.996 479.487 233.82 479.487 230.956C479.487 228.108 479.999 225.94 481.023 224.452C482.063 222.964 483.583 222.22 485.583 222.22C487.583 222.22 489.095 222.964 490.119 224.452C491.159 225.94 491.679 228.1 491.679 230.932C491.679 233.796 491.159 235.972 490.119 237.46C489.079 238.948 487.567 239.692 485.583 239.692ZM485.583 237.7C486.831 237.7 487.743 237.156 488.319 236.068C488.911 234.98 489.207 233.268 489.207 230.932C489.207 228.612 488.911 226.916 488.319 225.844C487.743 224.772 486.831 224.236 485.583 224.236C484.335 224.236 483.415 224.78 482.823 225.868C482.247 226.94 481.959 228.628 481.959 230.932C481.959 233.268 482.247 234.98 482.823 236.068C483.415 237.156 484.335 237.7 485.583 237.7ZM497.333 232.756C496.133 232.756 495.181 232.324 494.477 231.46C493.789 230.58 493.445 229.268 493.445 227.524C493.445 225.764 493.789 224.46 494.477 223.612C495.181 222.748 496.133 222.316 497.333 222.316C498.533 222.316 499.477 222.748 500.165 223.612C500.853 224.46 501.197 225.764 501.197 227.524C501.197 229.268 500.853 230.58 500.165 231.46C499.477 232.324 498.533 232.756 497.333 232.756ZM497.333 231.1C497.925 231.1 498.365 230.82 498.653 230.26C498.941 229.7 499.085 228.788 499.085 227.524C499.085 226.276 498.941 225.372 498.653 224.812C498.365 224.252 497.925 223.972 497.333 223.972C496.741 223.972 496.301 224.252 496.013 224.812C495.725 225.372 495.581 226.276 495.581 227.524C495.581 228.788 495.725 229.7 496.013 230.26C496.301 230.82 496.741 231.1 497.333 231.1ZM496.973 239.5L506.885 222.412H509.189L499.325 239.5H496.973ZM508.829 239.596C507.629 239.596 506.677 239.164 505.973 238.3C505.285 237.42 504.941 236.108 504.941 234.364C504.941 232.604 505.285 231.3 505.973 230.452C506.677 229.588 507.629 229.156 508.829 229.156C510.029 229.156 510.973 229.588 511.661 230.452C512.349 231.3 512.693 232.604 512.693 234.364C512.693 236.108 512.349 237.42 511.661 238.3C510.973 239.164 510.029 239.596 508.829 239.596ZM508.829 237.94C509.421 237.94 509.861 237.66 510.149 237.1C510.437 236.54 510.581 235.628 510.581 234.364C510.581 233.116 510.437 232.212 510.149 231.652C509.861 231.092 509.421 230.812 508.829 230.812C508.237 230.812 507.797 231.092 507.509 231.652C507.221 232.212 507.077 233.116 507.077 234.364C507.077 235.628 507.221 236.54 507.509 237.1C507.797 237.66 508.237 237.94 508.829 237.94Z" fill="#BC3CF8"/>
<path d="M135.167 32H430.144C460.44 32 485 56.56 485 86.8562C485 117.153 460.44 141.712 430.144 141.712H87.644C62.435 141.712 42 162.148 42 187.356C42 212.565 62.435 233 87.644 233H393.66" stroke="url(#paint2_linear_380_16)" stroke-width="1.58427"/>
<path d="M383.5 38C387.642 38 391 34.6421 391 30.5C391 26.3579 387.642 23 383.5 23C379.358 23 376 26.3579 376 30.5C376 34.6421 379.358 38 383.5 38Z" fill="#670490"/>
<path d="M165.5 149C169.642 149 173 145.642 173 141.5C173 137.358 169.642 134 165.5 134C161.358 134 158 137.358 158 141.5C158 145.642 161.358 149 165.5 149Z" fill="#878787"/>
<path d="M286.5 240C290.642 240 294 236.642 294 232.5C294 228.358 290.642 225 286.5 225C282.358 225 279 228.358 279 232.5C279 236.642 282.358 240 286.5 240Z" fill="#670490"/>
<defs>
<linearGradient id="paint0_linear_380_16" x1="9.99999" y1="10.3048" x2="111.397" y2="46.0709" gradientUnits="userSpaceOnUse">
<stop stop-color="#8024AD"/>
<stop offset="1" stop-color="#630EE1"/>
</linearGradient>
<linearGradient id="paint1_linear_380_16" x1="439" y1="208.305" x2="540.4" y2="244.071" gradientUnits="userSpaceOnUse">
<stop stop-color="#8024AD"/>
<stop offset="1" stop-color="#630EE1"/>
</linearGradient>
<linearGradient id="paint2_linear_380_16" x1="42" y1="132.5" x2="485" y2="132.5" gradientUnits="userSpaceOnUse">
<stop stop-color="#696969"/>
<stop offset="1" stop-color="#232323"/>
</linearGradient>
</defs>
</svg>
