<svg width="20" height="20" viewBox="0 0 20 20" fill="none" xmlns="http://www.w3.org/2000/svg">
<g clip-path="url(#clip0_211_17570)">
<path d="M10.0001 10.8166C12.6373 10.8166 14.7751 8.67876 14.7751 6.0416C14.7751 3.40444 12.6373 1.2666 10.0001 1.2666C7.36294 1.2666 5.2251 3.40444 5.2251 6.0416C5.2251 8.67876 7.36294 10.8166 10.0001 10.8166Z" stroke="white" stroke-width="1.5" stroke-miterlimit="10"/>
<path d="M1.25 19.5663L1.55833 17.858C1.92258 15.8851 2.96645 14.1021 4.50859 12.8187C6.05074 11.5354 7.99371 10.8328 10 10.833C12.0087 10.8335 13.9536 11.5384 15.496 12.8251C17.0385 14.1118 18.0809 15.8987 18.4417 17.8747L18.75 19.583" stroke="white" stroke-width="1.5" stroke-miterlimit="10"/>
</g>
<defs>
<clipPath id="clip0_211_17570">
<rect width="20" height="20" fill="white"/>
</clipPath>
</defs>
</svg>
