<svg width="44" height="14" viewBox="0 0 44 14" fill="none" xmlns="http://www.w3.org/2000/svg">
<mask id="mask0_298_2260" style="mask-type:alpha" maskUnits="userSpaceOnUse" x="0" y="0" width="44" height="14">
<g clip-path="url(#clip0_298_2260)">
<path d="M43.6914 9.55937C43.6252 9.55937 43.5591 9.60313 43.515 9.7125C43.0741 10.9813 42.4569 11.7469 41.9499 11.7469C41.6633 11.7469 41.5531 11.4187 41.5531 10.9375C41.5531 9.69063 42.3026 7.04375 42.6774 5.81875C42.7214 5.66563 42.7435 5.53437 42.7435 5.425C42.7435 5.075 42.5451 4.9 42.0601 4.9C41.5531 4.9 40.98 5.09688 40.4509 6.0375C40.2745 5.20625 39.7014 4.85625 38.9078 4.85625C38.004 4.85625 37.1222 5.44688 36.3948 6.3875C35.6673 7.32812 34.8076 7.63438 34.1683 7.48125C34.6313 6.36563 34.8076 5.5125 34.8076 4.9C34.8076 3.91562 34.3226 3.325 33.5291 3.325C32.3387 3.325 31.6553 4.4625 31.6553 5.64375C31.6553 6.5625 32.0741 7.50313 33 7.9625C32.2285 9.69063 31.1042 11.2656 30.6633 11.2656C30.1122 11.2656 29.9359 8.575 29.98 6.65C30.002 5.55625 30.0902 5.49062 30.0902 5.1625C30.0902 4.96563 29.9579 4.83437 29.4509 4.83437C28.2826 4.83437 27.9078 5.81875 27.8637 6.95625C27.8417 7.39375 27.7756 7.80937 27.6653 8.225C27.1804 9.95312 26.1663 11.2875 25.505 11.2875C25.1964 11.2875 25.1082 10.9813 25.1082 10.5875C25.1082 9.34063 25.8136 7.76562 25.8136 6.43125C25.8136 5.44688 25.3727 4.83437 24.5571 4.83437C23.5872 4.83437 22.3307 5.97188 21.1182 8.09375C21.515 6.475 21.6693 4.9 20.501 4.9C20.2365 4.9 19.994 4.96562 19.7735 5.09687C19.6192 5.1625 19.5311 5.31563 19.5311 5.49062C19.6413 7.21875 18.1202 11.6594 16.6874 11.6594C16.4228 11.6594 16.2906 11.375 16.2906 10.9156C16.2906 9.66875 17.0401 7.02187 17.4148 5.79688C17.4589 5.64375 17.481 5.5125 17.481 5.38125C17.481 5.05312 17.2826 4.87812 16.7976 4.87812C16.2906 4.87812 15.7174 5.075 15.1884 6.01562C14.99 5.18437 14.4389 4.83437 13.6453 4.83437C12.3447 4.83437 10.9118 6.19063 10.2725 7.9625C9.41283 10.325 7.71543 12.6219 5.4008 12.6219C3.30661 12.6219 2.20441 10.8938 2.20441 8.15938C2.20441 4.2 5.13627 0.984375 7.29659 0.984375C8.33266 0.984375 8.81764 1.64063 8.81764 2.64688C8.81764 3.87188 8.13427 4.41875 8.13427 4.9C8.13427 5.03125 8.24449 5.18438 8.48697 5.18438C9.43487 5.18438 10.5371 4.09063 10.5371 2.58125C10.5371 1.07187 9.34669 0 7.18637 0C3.59319 0 0 3.56562 0 8.15938C0 11.8125 1.80762 14 4.93788 14C7.07615 14 8.9499 12.3594 9.94188 10.4344C10.0521 12.0312 10.7796 12.8625 11.9038 12.8625C12.8958 12.8625 13.6894 12.2719 14.3066 11.2438C14.5491 12.3156 15.1663 12.8406 15.982 12.8406C16.9078 12.8406 17.7014 12.25 18.4289 11.1781C18.4289 12.0312 18.6052 12.8406 19.3547 12.8406C19.7074 12.8406 20.1263 12.7531 20.1924 12.4469C20.986 9.23125 22.9258 6.58437 23.521 6.58437C23.6974 6.58437 23.7415 6.75937 23.7415 6.95625C23.7415 7.83125 23.1242 9.625 23.1242 10.7625C23.1242 12.0094 23.6533 12.8187 24.7555 12.8187C25.9679 12.8187 27.2024 11.3531 28.018 9.1875C28.2826 11.2 28.8337 12.8187 29.6934 12.8187C30.7515 12.8187 32.6693 10.5875 33.8156 8.225C34.2565 8.29062 34.9399 8.26875 35.6012 7.80938C35.3146 8.50938 35.1603 9.275 35.1603 10.0188C35.1603 12.2063 36.2184 12.8187 37.1222 12.8187C38.1142 12.8187 38.9078 12.2281 39.5251 11.2C39.7234 12.1188 40.2525 12.7969 41.2004 12.7969C42.6774 12.7969 43.978 11.2875 43.978 10.0406C44 9.77813 43.8457 9.55937 43.6914 9.55937ZM12.8297 11.6375C12.2345 11.6375 11.992 11.0469 11.992 10.15C11.992 8.59688 13.0721 5.99375 14.1964 5.99375C14.6814 5.99375 14.8798 6.5625 14.8798 7.28437C14.8798 8.85938 13.8657 11.6375 12.8297 11.6375ZM33.3968 7C33.0441 6.58437 32.9118 5.99375 32.9118 5.49062C32.9118 4.85625 33.1543 4.33125 33.4188 4.33125C33.6834 4.33125 33.7936 4.59375 33.7936 4.9875C33.7715 5.6 33.5511 6.54063 33.3968 7ZM38.0481 11.6375C37.4529 11.6375 37.2104 10.9375 37.2104 10.15C37.2104 8.64062 38.2906 5.99375 39.4148 5.99375C39.8998 5.99375 40.0762 6.5625 40.0762 7.28437C40.0982 8.85938 39.1062 11.6375 38.0481 11.6375Z" fill="url(#paint0_linear_298_2260)"/>
<path d="M43.6914 9.55937C43.6252 9.55937 43.5591 9.60313 43.515 9.7125C43.0741 10.9813 42.4569 11.7469 41.9499 11.7469C41.6633 11.7469 41.5531 11.4187 41.5531 10.9375C41.5531 9.69063 42.3026 7.04375 42.6774 5.81875C42.7214 5.66563 42.7435 5.53437 42.7435 5.425C42.7435 5.075 42.5451 4.9 42.0601 4.9C41.5531 4.9 40.98 5.09688 40.4509 6.0375C40.2745 5.20625 39.7014 4.85625 38.9078 4.85625C38.004 4.85625 37.1222 5.44688 36.3948 6.3875C35.6673 7.32812 34.8076 7.63438 34.1683 7.48125C34.6313 6.36563 34.8076 5.5125 34.8076 4.9C34.8076 3.91562 34.3226 3.325 33.5291 3.325C32.3387 3.325 31.6553 4.4625 31.6553 5.64375C31.6553 6.5625 32.0741 7.50313 33 7.9625C32.2285 9.69063 31.1042 11.2656 30.6633 11.2656C30.1122 11.2656 29.9359 8.575 29.98 6.65C30.002 5.55625 30.0902 5.49062 30.0902 5.1625C30.0902 4.96563 29.9579 4.83437 29.4509 4.83437C28.2826 4.83437 27.9078 5.81875 27.8637 6.95625C27.8417 7.39375 27.7756 7.80937 27.6653 8.225C27.1804 9.95312 26.1663 11.2875 25.505 11.2875C25.1964 11.2875 25.1082 10.9813 25.1082 10.5875C25.1082 9.34063 25.8136 7.76562 25.8136 6.43125C25.8136 5.44688 25.3727 4.83437 24.5571 4.83437C23.5872 4.83437 22.3307 5.97188 21.1182 8.09375C21.515 6.475 21.6693 4.9 20.501 4.9C20.2365 4.9 19.994 4.96562 19.7735 5.09687C19.6192 5.1625 19.5311 5.31563 19.5311 5.49062C19.6413 7.21875 18.1202 11.6594 16.6874 11.6594C16.4228 11.6594 16.2906 11.375 16.2906 10.9156C16.2906 9.66875 17.0401 7.02187 17.4148 5.79688C17.4589 5.64375 17.481 5.5125 17.481 5.38125C17.481 5.05312 17.2826 4.87812 16.7976 4.87812C16.2906 4.87812 15.7174 5.075 15.1884 6.01562C14.99 5.18437 14.4389 4.83437 13.6453 4.83437C12.3447 4.83437 10.9118 6.19063 10.2725 7.9625C9.41283 10.325 7.71543 12.6219 5.4008 12.6219C3.30661 12.6219 2.20441 10.8938 2.20441 8.15938C2.20441 4.2 5.13627 0.984375 7.29659 0.984375C8.33266 0.984375 8.81764 1.64063 8.81764 2.64688C8.81764 3.87188 8.13427 4.41875 8.13427 4.9C8.13427 5.03125 8.24449 5.18438 8.48697 5.18438C9.43487 5.18438 10.5371 4.09063 10.5371 2.58125C10.5371 1.07187 9.34669 0 7.18637 0C3.59319 0 0 3.56562 0 8.15938C0 11.8125 1.80762 14 4.93788 14C7.07615 14 8.9499 12.3594 9.94188 10.4344C10.0521 12.0312 10.7796 12.8625 11.9038 12.8625C12.8958 12.8625 13.6894 12.2719 14.3066 11.2438C14.5491 12.3156 15.1663 12.8406 15.982 12.8406C16.9078 12.8406 17.7014 12.25 18.4289 11.1781C18.4289 12.0312 18.6052 12.8406 19.3547 12.8406C19.7074 12.8406 20.1263 12.7531 20.1924 12.4469C20.986 9.23125 22.9258 6.58437 23.521 6.58437C23.6974 6.58437 23.7415 6.75937 23.7415 6.95625C23.7415 7.83125 23.1242 9.625 23.1242 10.7625C23.1242 12.0094 23.6533 12.8187 24.7555 12.8187C25.9679 12.8187 27.2024 11.3531 28.018 9.1875C28.2826 11.2 28.8337 12.8187 29.6934 12.8187C30.7515 12.8187 32.6693 10.5875 33.8156 8.225C34.2565 8.29062 34.9399 8.26875 35.6012 7.80938C35.3146 8.50938 35.1603 9.275 35.1603 10.0188C35.1603 12.2063 36.2184 12.8187 37.1222 12.8187C38.1142 12.8187 38.9078 12.2281 39.5251 11.2C39.7234 12.1188 40.2525 12.7969 41.2004 12.7969C42.6774 12.7969 43.978 11.2875 43.978 10.0406C44 9.77813 43.8457 9.55937 43.6914 9.55937ZM12.8297 11.6375C12.2345 11.6375 11.992 11.0469 11.992 10.15C11.992 8.59688 13.0721 5.99375 14.1964 5.99375C14.6814 5.99375 14.8798 6.5625 14.8798 7.28437C14.8798 8.85938 13.8657 11.6375 12.8297 11.6375ZM33.3968 7C33.0441 6.58437 32.9118 5.99375 32.9118 5.49062C32.9118 4.85625 33.1543 4.33125 33.4188 4.33125C33.6834 4.33125 33.7936 4.59375 33.7936 4.9875C33.7715 5.6 33.5511 6.54063 33.3968 7ZM38.0481 11.6375C37.4529 11.6375 37.2104 10.9375 37.2104 10.15C37.2104 8.64062 38.2906 5.99375 39.4148 5.99375C39.8998 5.99375 40.0762 6.5625 40.0762 7.28437C40.0982 8.85938 39.1062 11.6375 38.0481 11.6375Z" fill="url(#paint1_radial_298_2260)"/>
<path d="M43.6914 9.55937C43.6252 9.55937 43.5591 9.60313 43.515 9.7125C43.0741 10.9813 42.4569 11.7469 41.9499 11.7469C41.6633 11.7469 41.5531 11.4187 41.5531 10.9375C41.5531 9.69063 42.3026 7.04375 42.6774 5.81875C42.7214 5.66563 42.7435 5.53437 42.7435 5.425C42.7435 5.075 42.5451 4.9 42.0601 4.9C41.5531 4.9 40.98 5.09688 40.4509 6.0375C40.2745 5.20625 39.7014 4.85625 38.9078 4.85625C38.004 4.85625 37.1222 5.44688 36.3948 6.3875C35.6673 7.32812 34.8076 7.63438 34.1683 7.48125C34.6313 6.36563 34.8076 5.5125 34.8076 4.9C34.8076 3.91562 34.3226 3.325 33.5291 3.325C32.3387 3.325 31.6553 4.4625 31.6553 5.64375C31.6553 6.5625 32.0741 7.50313 33 7.9625C32.2285 9.69063 31.1042 11.2656 30.6633 11.2656C30.1122 11.2656 29.9359 8.575 29.98 6.65C30.002 5.55625 30.0902 5.49062 30.0902 5.1625C30.0902 4.96563 29.9579 4.83437 29.4509 4.83437C28.2826 4.83437 27.9078 5.81875 27.8637 6.95625C27.8417 7.39375 27.7756 7.80937 27.6653 8.225C27.1804 9.95312 26.1663 11.2875 25.505 11.2875C25.1964 11.2875 25.1082 10.9813 25.1082 10.5875C25.1082 9.34063 25.8136 7.76562 25.8136 6.43125C25.8136 5.44688 25.3727 4.83437 24.5571 4.83437C23.5872 4.83437 22.3307 5.97188 21.1182 8.09375C21.515 6.475 21.6693 4.9 20.501 4.9C20.2365 4.9 19.994 4.96562 19.7735 5.09687C19.6192 5.1625 19.5311 5.31563 19.5311 5.49062C19.6413 7.21875 18.1202 11.6594 16.6874 11.6594C16.4228 11.6594 16.2906 11.375 16.2906 10.9156C16.2906 9.66875 17.0401 7.02187 17.4148 5.79688C17.4589 5.64375 17.481 5.5125 17.481 5.38125C17.481 5.05312 17.2826 4.87812 16.7976 4.87812C16.2906 4.87812 15.7174 5.075 15.1884 6.01562C14.99 5.18437 14.4389 4.83437 13.6453 4.83437C12.3447 4.83437 10.9118 6.19063 10.2725 7.9625C9.41283 10.325 7.71543 12.6219 5.4008 12.6219C3.30661 12.6219 2.20441 10.8938 2.20441 8.15938C2.20441 4.2 5.13627 0.984375 7.29659 0.984375C8.33266 0.984375 8.81764 1.64063 8.81764 2.64688C8.81764 3.87188 8.13427 4.41875 8.13427 4.9C8.13427 5.03125 8.24449 5.18438 8.48697 5.18438C9.43487 5.18438 10.5371 4.09063 10.5371 2.58125C10.5371 1.07187 9.34669 0 7.18637 0C3.59319 0 0 3.56562 0 8.15938C0 11.8125 1.80762 14 4.93788 14C7.07615 14 8.9499 12.3594 9.94188 10.4344C10.0521 12.0312 10.7796 12.8625 11.9038 12.8625C12.8958 12.8625 13.6894 12.2719 14.3066 11.2438C14.5491 12.3156 15.1663 12.8406 15.982 12.8406C16.9078 12.8406 17.7014 12.25 18.4289 11.1781C18.4289 12.0312 18.6052 12.8406 19.3547 12.8406C19.7074 12.8406 20.1263 12.7531 20.1924 12.4469C20.986 9.23125 22.9258 6.58437 23.521 6.58437C23.6974 6.58437 23.7415 6.75937 23.7415 6.95625C23.7415 7.83125 23.1242 9.625 23.1242 10.7625C23.1242 12.0094 23.6533 12.8187 24.7555 12.8187C25.9679 12.8187 27.2024 11.3531 28.018 9.1875C28.2826 11.2 28.8337 12.8187 29.6934 12.8187C30.7515 12.8187 32.6693 10.5875 33.8156 8.225C34.2565 8.29062 34.9399 8.26875 35.6012 7.80938C35.3146 8.50938 35.1603 9.275 35.1603 10.0188C35.1603 12.2063 36.2184 12.8187 37.1222 12.8187C38.1142 12.8187 38.9078 12.2281 39.5251 11.2C39.7234 12.1188 40.2525 12.7969 41.2004 12.7969C42.6774 12.7969 43.978 11.2875 43.978 10.0406C44 9.77813 43.8457 9.55937 43.6914 9.55937ZM12.8297 11.6375C12.2345 11.6375 11.992 11.0469 11.992 10.15C11.992 8.59688 13.0721 5.99375 14.1964 5.99375C14.6814 5.99375 14.8798 6.5625 14.8798 7.28437C14.8798 8.85938 13.8657 11.6375 12.8297 11.6375ZM33.3968 7C33.0441 6.58437 32.9118 5.99375 32.9118 5.49062C32.9118 4.85625 33.1543 4.33125 33.4188 4.33125C33.6834 4.33125 33.7936 4.59375 33.7936 4.9875C33.7715 5.6 33.5511 6.54063 33.3968 7ZM38.0481 11.6375C37.4529 11.6375 37.2104 10.9375 37.2104 10.15C37.2104 8.64062 38.2906 5.99375 39.4148 5.99375C39.8998 5.99375 40.0762 6.5625 40.0762 7.28437C40.0982 8.85938 39.1062 11.6375 38.0481 11.6375Z" fill="url(#paint2_radial_298_2260)"/>
<path d="M43.6914 9.55937C43.6252 9.55937 43.5591 9.60313 43.515 9.7125C43.0741 10.9813 42.4569 11.7469 41.9499 11.7469C41.6633 11.7469 41.5531 11.4187 41.5531 10.9375C41.5531 9.69063 42.3026 7.04375 42.6774 5.81875C42.7214 5.66563 42.7435 5.53437 42.7435 5.425C42.7435 5.075 42.5451 4.9 42.0601 4.9C41.5531 4.9 40.98 5.09688 40.4509 6.0375C40.2745 5.20625 39.7014 4.85625 38.9078 4.85625C38.004 4.85625 37.1222 5.44688 36.3948 6.3875C35.6673 7.32812 34.8076 7.63438 34.1683 7.48125C34.6313 6.36563 34.8076 5.5125 34.8076 4.9C34.8076 3.91562 34.3226 3.325 33.5291 3.325C32.3387 3.325 31.6553 4.4625 31.6553 5.64375C31.6553 6.5625 32.0741 7.50313 33 7.9625C32.2285 9.69063 31.1042 11.2656 30.6633 11.2656C30.1122 11.2656 29.9359 8.575 29.98 6.65C30.002 5.55625 30.0902 5.49062 30.0902 5.1625C30.0902 4.96563 29.9579 4.83437 29.4509 4.83437C28.2826 4.83437 27.9078 5.81875 27.8637 6.95625C27.8417 7.39375 27.7756 7.80937 27.6653 8.225C27.1804 9.95312 26.1663 11.2875 25.505 11.2875C25.1964 11.2875 25.1082 10.9813 25.1082 10.5875C25.1082 9.34063 25.8136 7.76562 25.8136 6.43125C25.8136 5.44688 25.3727 4.83437 24.5571 4.83437C23.5872 4.83437 22.3307 5.97188 21.1182 8.09375C21.515 6.475 21.6693 4.9 20.501 4.9C20.2365 4.9 19.994 4.96562 19.7735 5.09687C19.6192 5.1625 19.5311 5.31563 19.5311 5.49062C19.6413 7.21875 18.1202 11.6594 16.6874 11.6594C16.4228 11.6594 16.2906 11.375 16.2906 10.9156C16.2906 9.66875 17.0401 7.02187 17.4148 5.79688C17.4589 5.64375 17.481 5.5125 17.481 5.38125C17.481 5.05312 17.2826 4.87812 16.7976 4.87812C16.2906 4.87812 15.7174 5.075 15.1884 6.01562C14.99 5.18437 14.4389 4.83437 13.6453 4.83437C12.3447 4.83437 10.9118 6.19063 10.2725 7.9625C9.41283 10.325 7.71543 12.6219 5.4008 12.6219C3.30661 12.6219 2.20441 10.8938 2.20441 8.15938C2.20441 4.2 5.13627 0.984375 7.29659 0.984375C8.33266 0.984375 8.81764 1.64063 8.81764 2.64688C8.81764 3.87188 8.13427 4.41875 8.13427 4.9C8.13427 5.03125 8.24449 5.18438 8.48697 5.18438C9.43487 5.18438 10.5371 4.09063 10.5371 2.58125C10.5371 1.07187 9.34669 0 7.18637 0C3.59319 0 0 3.56562 0 8.15938C0 11.8125 1.80762 14 4.93788 14C7.07615 14 8.9499 12.3594 9.94188 10.4344C10.0521 12.0312 10.7796 12.8625 11.9038 12.8625C12.8958 12.8625 13.6894 12.2719 14.3066 11.2438C14.5491 12.3156 15.1663 12.8406 15.982 12.8406C16.9078 12.8406 17.7014 12.25 18.4289 11.1781C18.4289 12.0312 18.6052 12.8406 19.3547 12.8406C19.7074 12.8406 20.1263 12.7531 20.1924 12.4469C20.986 9.23125 22.9258 6.58437 23.521 6.58437C23.6974 6.58437 23.7415 6.75937 23.7415 6.95625C23.7415 7.83125 23.1242 9.625 23.1242 10.7625C23.1242 12.0094 23.6533 12.8187 24.7555 12.8187C25.9679 12.8187 27.2024 11.3531 28.018 9.1875C28.2826 11.2 28.8337 12.8187 29.6934 12.8187C30.7515 12.8187 32.6693 10.5875 33.8156 8.225C34.2565 8.29062 34.9399 8.26875 35.6012 7.80938C35.3146 8.50938 35.1603 9.275 35.1603 10.0188C35.1603 12.2063 36.2184 12.8187 37.1222 12.8187C38.1142 12.8187 38.9078 12.2281 39.5251 11.2C39.7234 12.1188 40.2525 12.7969 41.2004 12.7969C42.6774 12.7969 43.978 11.2875 43.978 10.0406C44 9.77813 43.8457 9.55937 43.6914 9.55937ZM12.8297 11.6375C12.2345 11.6375 11.992 11.0469 11.992 10.15C11.992 8.59688 13.0721 5.99375 14.1964 5.99375C14.6814 5.99375 14.8798 6.5625 14.8798 7.28437C14.8798 8.85938 13.8657 11.6375 12.8297 11.6375ZM33.3968 7C33.0441 6.58437 32.9118 5.99375 32.9118 5.49062C32.9118 4.85625 33.1543 4.33125 33.4188 4.33125C33.6834 4.33125 33.7936 4.59375 33.7936 4.9875C33.7715 5.6 33.5511 6.54063 33.3968 7ZM38.0481 11.6375C37.4529 11.6375 37.2104 10.9375 37.2104 10.15C37.2104 8.64062 38.2906 5.99375 39.4148 5.99375C39.8998 5.99375 40.0762 6.5625 40.0762 7.28437C40.0982 8.85938 39.1062 11.6375 38.0481 11.6375Z" fill="url(#paint3_radial_298_2260)"/>
<path d="M43.6914 9.55937C43.6252 9.55937 43.5591 9.60313 43.515 9.7125C43.0741 10.9813 42.4569 11.7469 41.9499 11.7469C41.6633 11.7469 41.5531 11.4187 41.5531 10.9375C41.5531 9.69063 42.3026 7.04375 42.6774 5.81875C42.7214 5.66563 42.7435 5.53437 42.7435 5.425C42.7435 5.075 42.5451 4.9 42.0601 4.9C41.5531 4.9 40.98 5.09688 40.4509 6.0375C40.2745 5.20625 39.7014 4.85625 38.9078 4.85625C38.004 4.85625 37.1222 5.44688 36.3948 6.3875C35.6673 7.32812 34.8076 7.63438 34.1683 7.48125C34.6313 6.36563 34.8076 5.5125 34.8076 4.9C34.8076 3.91562 34.3226 3.325 33.5291 3.325C32.3387 3.325 31.6553 4.4625 31.6553 5.64375C31.6553 6.5625 32.0741 7.50313 33 7.9625C32.2285 9.69063 31.1042 11.2656 30.6633 11.2656C30.1122 11.2656 29.9359 8.575 29.98 6.65C30.002 5.55625 30.0902 5.49062 30.0902 5.1625C30.0902 4.96563 29.9579 4.83437 29.4509 4.83437C28.2826 4.83437 27.9078 5.81875 27.8637 6.95625C27.8417 7.39375 27.7756 7.80937 27.6653 8.225C27.1804 9.95312 26.1663 11.2875 25.505 11.2875C25.1964 11.2875 25.1082 10.9813 25.1082 10.5875C25.1082 9.34063 25.8136 7.76562 25.8136 6.43125C25.8136 5.44688 25.3727 4.83437 24.5571 4.83437C23.5872 4.83437 22.3307 5.97188 21.1182 8.09375C21.515 6.475 21.6693 4.9 20.501 4.9C20.2365 4.9 19.994 4.96562 19.7735 5.09687C19.6192 5.1625 19.5311 5.31563 19.5311 5.49062C19.6413 7.21875 18.1202 11.6594 16.6874 11.6594C16.4228 11.6594 16.2906 11.375 16.2906 10.9156C16.2906 9.66875 17.0401 7.02187 17.4148 5.79688C17.4589 5.64375 17.481 5.5125 17.481 5.38125C17.481 5.05312 17.2826 4.87812 16.7976 4.87812C16.2906 4.87812 15.7174 5.075 15.1884 6.01562C14.99 5.18437 14.4389 4.83437 13.6453 4.83437C12.3447 4.83437 10.9118 6.19063 10.2725 7.9625C9.41283 10.325 7.71543 12.6219 5.4008 12.6219C3.30661 12.6219 2.20441 10.8938 2.20441 8.15938C2.20441 4.2 5.13627 0.984375 7.29659 0.984375C8.33266 0.984375 8.81764 1.64063 8.81764 2.64688C8.81764 3.87188 8.13427 4.41875 8.13427 4.9C8.13427 5.03125 8.24449 5.18438 8.48697 5.18438C9.43487 5.18438 10.5371 4.09063 10.5371 2.58125C10.5371 1.07187 9.34669 0 7.18637 0C3.59319 0 0 3.56562 0 8.15938C0 11.8125 1.80762 14 4.93788 14C7.07615 14 8.9499 12.3594 9.94188 10.4344C10.0521 12.0312 10.7796 12.8625 11.9038 12.8625C12.8958 12.8625 13.6894 12.2719 14.3066 11.2438C14.5491 12.3156 15.1663 12.8406 15.982 12.8406C16.9078 12.8406 17.7014 12.25 18.4289 11.1781C18.4289 12.0312 18.6052 12.8406 19.3547 12.8406C19.7074 12.8406 20.1263 12.7531 20.1924 12.4469C20.986 9.23125 22.9258 6.58437 23.521 6.58437C23.6974 6.58437 23.7415 6.75937 23.7415 6.95625C23.7415 7.83125 23.1242 9.625 23.1242 10.7625C23.1242 12.0094 23.6533 12.8187 24.7555 12.8187C25.9679 12.8187 27.2024 11.3531 28.018 9.1875C28.2826 11.2 28.8337 12.8187 29.6934 12.8187C30.7515 12.8187 32.6693 10.5875 33.8156 8.225C34.2565 8.29062 34.9399 8.26875 35.6012 7.80938C35.3146 8.50938 35.1603 9.275 35.1603 10.0188C35.1603 12.2063 36.2184 12.8187 37.1222 12.8187C38.1142 12.8187 38.9078 12.2281 39.5251 11.2C39.7234 12.1188 40.2525 12.7969 41.2004 12.7969C42.6774 12.7969 43.978 11.2875 43.978 10.0406C44 9.77813 43.8457 9.55937 43.6914 9.55937ZM12.8297 11.6375C12.2345 11.6375 11.992 11.0469 11.992 10.15C11.992 8.59688 13.0721 5.99375 14.1964 5.99375C14.6814 5.99375 14.8798 6.5625 14.8798 7.28437C14.8798 8.85938 13.8657 11.6375 12.8297 11.6375ZM33.3968 7C33.0441 6.58437 32.9118 5.99375 32.9118 5.49062C32.9118 4.85625 33.1543 4.33125 33.4188 4.33125C33.6834 4.33125 33.7936 4.59375 33.7936 4.9875C33.7715 5.6 33.5511 6.54063 33.3968 7ZM38.0481 11.6375C37.4529 11.6375 37.2104 10.9375 37.2104 10.15C37.2104 8.64062 38.2906 5.99375 39.4148 5.99375C39.8998 5.99375 40.0762 6.5625 40.0762 7.28437C40.0982 8.85938 39.1062 11.6375 38.0481 11.6375Z" fill="url(#paint4_radial_298_2260)"/>
<path d="M43.6914 9.55937C43.6252 9.55937 43.5591 9.60313 43.515 9.7125C43.0741 10.9813 42.4569 11.7469 41.9499 11.7469C41.6633 11.7469 41.5531 11.4187 41.5531 10.9375C41.5531 9.69063 42.3026 7.04375 42.6774 5.81875C42.7214 5.66563 42.7435 5.53437 42.7435 5.425C42.7435 5.075 42.5451 4.9 42.0601 4.9C41.5531 4.9 40.98 5.09688 40.4509 6.0375C40.2745 5.20625 39.7014 4.85625 38.9078 4.85625C38.004 4.85625 37.1222 5.44688 36.3948 6.3875C35.6673 7.32812 34.8076 7.63438 34.1683 7.48125C34.6313 6.36563 34.8076 5.5125 34.8076 4.9C34.8076 3.91562 34.3226 3.325 33.5291 3.325C32.3387 3.325 31.6553 4.4625 31.6553 5.64375C31.6553 6.5625 32.0741 7.50313 33 7.9625C32.2285 9.69063 31.1042 11.2656 30.6633 11.2656C30.1122 11.2656 29.9359 8.575 29.98 6.65C30.002 5.55625 30.0902 5.49062 30.0902 5.1625C30.0902 4.96563 29.9579 4.83437 29.4509 4.83437C28.2826 4.83437 27.9078 5.81875 27.8637 6.95625C27.8417 7.39375 27.7756 7.80937 27.6653 8.225C27.1804 9.95312 26.1663 11.2875 25.505 11.2875C25.1964 11.2875 25.1082 10.9813 25.1082 10.5875C25.1082 9.34063 25.8136 7.76562 25.8136 6.43125C25.8136 5.44688 25.3727 4.83437 24.5571 4.83437C23.5872 4.83437 22.3307 5.97188 21.1182 8.09375C21.515 6.475 21.6693 4.9 20.501 4.9C20.2365 4.9 19.994 4.96562 19.7735 5.09687C19.6192 5.1625 19.5311 5.31563 19.5311 5.49062C19.6413 7.21875 18.1202 11.6594 16.6874 11.6594C16.4228 11.6594 16.2906 11.375 16.2906 10.9156C16.2906 9.66875 17.0401 7.02187 17.4148 5.79688C17.4589 5.64375 17.481 5.5125 17.481 5.38125C17.481 5.05312 17.2826 4.87812 16.7976 4.87812C16.2906 4.87812 15.7174 5.075 15.1884 6.01562C14.99 5.18437 14.4389 4.83437 13.6453 4.83437C12.3447 4.83437 10.9118 6.19063 10.2725 7.9625C9.41283 10.325 7.71543 12.6219 5.4008 12.6219C3.30661 12.6219 2.20441 10.8938 2.20441 8.15938C2.20441 4.2 5.13627 0.984375 7.29659 0.984375C8.33266 0.984375 8.81764 1.64063 8.81764 2.64688C8.81764 3.87188 8.13427 4.41875 8.13427 4.9C8.13427 5.03125 8.24449 5.18438 8.48697 5.18438C9.43487 5.18438 10.5371 4.09063 10.5371 2.58125C10.5371 1.07187 9.34669 0 7.18637 0C3.59319 0 0 3.56562 0 8.15938C0 11.8125 1.80762 14 4.93788 14C7.07615 14 8.9499 12.3594 9.94188 10.4344C10.0521 12.0312 10.7796 12.8625 11.9038 12.8625C12.8958 12.8625 13.6894 12.2719 14.3066 11.2438C14.5491 12.3156 15.1663 12.8406 15.982 12.8406C16.9078 12.8406 17.7014 12.25 18.4289 11.1781C18.4289 12.0312 18.6052 12.8406 19.3547 12.8406C19.7074 12.8406 20.1263 12.7531 20.1924 12.4469C20.986 9.23125 22.9258 6.58437 23.521 6.58437C23.6974 6.58437 23.7415 6.75937 23.7415 6.95625C23.7415 7.83125 23.1242 9.625 23.1242 10.7625C23.1242 12.0094 23.6533 12.8187 24.7555 12.8187C25.9679 12.8187 27.2024 11.3531 28.018 9.1875C28.2826 11.2 28.8337 12.8187 29.6934 12.8187C30.7515 12.8187 32.6693 10.5875 33.8156 8.225C34.2565 8.29062 34.9399 8.26875 35.6012 7.80938C35.3146 8.50938 35.1603 9.275 35.1603 10.0188C35.1603 12.2063 36.2184 12.8187 37.1222 12.8187C38.1142 12.8187 38.9078 12.2281 39.5251 11.2C39.7234 12.1188 40.2525 12.7969 41.2004 12.7969C42.6774 12.7969 43.978 11.2875 43.978 10.0406C44 9.77813 43.8457 9.55937 43.6914 9.55937ZM12.8297 11.6375C12.2345 11.6375 11.992 11.0469 11.992 10.15C11.992 8.59688 13.0721 5.99375 14.1964 5.99375C14.6814 5.99375 14.8798 6.5625 14.8798 7.28437C14.8798 8.85938 13.8657 11.6375 12.8297 11.6375ZM33.3968 7C33.0441 6.58437 32.9118 5.99375 32.9118 5.49062C32.9118 4.85625 33.1543 4.33125 33.4188 4.33125C33.6834 4.33125 33.7936 4.59375 33.7936 4.9875C33.7715 5.6 33.5511 6.54063 33.3968 7ZM38.0481 11.6375C37.4529 11.6375 37.2104 10.9375 37.2104 10.15C37.2104 8.64062 38.2906 5.99375 39.4148 5.99375C39.8998 5.99375 40.0762 6.5625 40.0762 7.28437C40.0982 8.85938 39.1062 11.6375 38.0481 11.6375Z" fill="url(#paint5_radial_298_2260)"/>
</g>
</mask>
<g mask="url(#mask0_298_2260)">
<rect x="-11" y="-11" width="62" height="38" fill="white"/>
</g>
<defs>
<linearGradient id="paint0_linear_298_2260" x1="43.5131" y1="14.2418" x2="6.94221" y2="5.47136" gradientUnits="userSpaceOnUse">
<stop stop-color="#7D2AE7"/>
<stop offset="0.7708" stop-color="#7D2AE7"/>
<stop offset="1" stop-color="#7D2AE7" stop-opacity="0"/>
</linearGradient>
<radialGradient id="paint1_radial_298_2260" cx="0" cy="0" r="1" gradientUnits="userSpaceOnUse" gradientTransform="translate(22.5252 15.5183) rotate(-45.5864) scale(13.2007 8.77465)">
<stop stop-color="#6420FF"/>
<stop offset="1" stop-color="#6420FF" stop-opacity="0"/>
</radialGradient>
<radialGradient id="paint2_radial_298_2260" cx="0" cy="0" r="1" gradientUnits="userSpaceOnUse" gradientTransform="translate(1.05296 9.32407) rotate(5.04943) scale(25.7914 20.4011)">
<stop offset="0.25" stop-color="#00C4CC"/>
<stop offset="1" stop-color="#00C4CC" stop-opacity="0"/>
</radialGradient>
<radialGradient id="paint3_radial_298_2260" cx="0" cy="0" r="1" gradientUnits="userSpaceOnUse" gradientTransform="translate(18.7769 13.9896) rotate(-38.634) scale(16.5712 11.312)">
<stop stop-color="#6420FF"/>
<stop offset="1" stop-color="#6420FF" stop-opacity="0"/>
</radialGradient>
<radialGradient id="paint4_radial_298_2260" cx="0" cy="0" r="1" gradientUnits="userSpaceOnUse" gradientTransform="translate(2.46477 16.4328) rotate(-34.0623) scale(19.3295 13.1793)">
<stop stop-color="#6420FF"/>
<stop offset="1" stop-color="#6420FF" stop-opacity="0"/>
</radialGradient>
<radialGradient id="paint5_radial_298_2260" cx="0" cy="0" r="1" gradientUnits="userSpaceOnUse" gradientTransform="translate(4.23347 1.28283) rotate(12.379) scale(38.2831 46.6259)">
<stop stop-color="#00C4CC"/>
<stop offset="1" stop-color="#00C4CC" stop-opacity="0"/>
</radialGradient>
<clipPath id="clip0_298_2260">
<rect width="44" height="14" fill="white"/>
</clipPath>
</defs>
</svg>
